<?xml version="1.0" standalone="no"?>
<!DOCTYPE svg PUBLIC "-//W3C//DTD SVG 20010904//EN"
 "http://www.w3.org/TR/2001/REC-SVG-20010904/DTD/svg10.dtd">
<svg version="1.0" xmlns="http://www.w3.org/2000/svg"
 width="990.000000pt" height="990.000000pt" viewBox="0 0 990.000000 990.000000"
 preserveAspectRatio="xMidYMid meet">
<metadata>
Created by potrace 1.11, written by Peter Selinger 2001-2013
</metadata>
<g transform="translate(0.000000,990.000000) scale(0.100000,-0.100000)"
fill="#000000" stroke="none">
<path d="M5750 6843 c0 -289 0 -294 -22 -324 -13 -17 -39 -39 -59 -49 -31 -16
-37 -26 -46 -69 -9 -43 -8 -51 6 -55 31 -8 91 -5 91 4 0 6 7 10 15 10 11 0 15
-11 14 -37 0 -33 -7 -44 -49 -78 -26 -22 -53 -49 -59 -60 -7 -11 -29 -30 -51
-43 -22 -12 -46 -37 -56 -57 -9 -19 -26 -37 -37 -41 -12 -4 -28 -15 -35 -25
-14 -21 -47 -25 -57 -9 -9 15 30 86 45 82 7 -2 33 7 57 18 31 14 43 26 39 35
-7 20 3 45 18 45 9 0 28 33 40 70 1 3 5 15 10 27 12 36 -1 44 -36 23 -39 -23
-108 -88 -108 -101 0 -6 -4 -8 -8 -5 -17 10 -51 -31 -56 -68 -8 -49 -10 -52
-58 -82 -22 -14 -43 -34 -45 -45 -3 -10 -14 -21 -24 -24 -11 -4 -26 -22 -33
-40 -14 -32 -56 -67 -56 -46 0 12 41 84 52 91 4 3 9 17 11 30 2 13 10 26 18
28 16 6 33 31 34 51 0 8 13 18 30 23 39 10 57 35 45 58 -8 15 -4 20 19 28 35
12 46 54 22 82 -14 17 -19 18 -41 7 -13 -7 -30 -23 -36 -36 -7 -12 -26 -31
-42 -41 -23 -14 -30 -25 -27 -42 7 -37 -11 -53 -52 -49 -21 2 -15 31 12 63 34
40 67 106 60 118 -3 5 11 25 31 44 20 19 33 39 30 45 -4 6 0 14 9 17 19 8 68
101 60 115 -4 5 3 17 15 27 19 15 19 19 6 37 -14 19 -15 19 -35 1 -11 -10 -18
-23 -15 -28 3 -5 -10 -25 -29 -44 -19 -19 -37 -48 -41 -65 -3 -16 -12 -29 -20
-29 -12 0 -29 -28 -31 -51 0 -4 -23 -42 -52 -86 -28 -43 -53 -90 -55 -103 -2
-20 -8 -24 -28 -22 -39 6 -44 18 -16 43 18 16 26 33 26 55 0 17 6 37 14 43 12
10 13 18 2 49 -11 31 -11 39 0 50 8 7 14 20 14 30 0 18 42 72 56 72 5 0 24 14
42 31 24 22 32 35 26 47 -4 9 -8 44 -10 76 -3 62 -18 84 -41 60 -8 -8 -19 -14
-24 -14 -5 0 -11 -10 -14 -23 -4 -13 -19 -36 -35 -51 -28 -26 -29 -29 -14 -51
14 -22 14 -25 -4 -43 -11 -11 -18 -22 -16 -25 9 -9 -37 -120 -58 -137 -13 -11
-19 -19 -14 -20 5 0 0 -8 -12 -18 -25 -22 -44 -66 -36 -86 3 -7 -6 -26 -20
-41 -20 -22 -23 -31 -16 -51 7 -19 6 -29 -8 -43 -9 -10 -24 -27 -32 -39 -8
-12 -18 -18 -22 -14 -9 9 21 132 33 132 5 0 9 8 9 17 0 19 18 79 31 105 5 10
9 24 9 31 0 8 9 22 19 31 18 16 22 55 10 96 -2 8 3 14 11 15 12 0 27 21 50 75
3 8 5 37 3 63 -1 34 2 50 12 53 11 4 11 11 3 29 -9 20 -14 22 -34 13 -19 -9
-21 -14 -13 -30 7 -14 6 -20 -5 -24 -12 -4 -21 -25 -31 -64 0 -3 -7 -16 -15
-30 -7 -14 -13 -37 -12 -51 2 -22 -4 -29 -28 -37 -39 -14 -53 -49 -37 -93 9
-25 9 -33 0 -36 -7 -2 -9 -11 -6 -19 3 -8 0 -20 -6 -28 -7 -8 -11 -18 -10 -22
4 -17 -22 -69 -42 -85 -19 -14 -23 -33 -18 -79 3 -31 -12 -59 -33 -60 -4 0 -5
19 -3 42 3 23 0 47 -6 54 -19 23 8 84 42 96 15 5 30 17 33 26 5 20 1 138 -7
167 -2 11 1 34 8 52 7 17 11 34 8 36 -6 7 24 66 47 92 31 36 31 63 0 85 -36
25 -66 26 -80 1 -14 -27 -13 -47 5 -64 13 -13 13 -16 0 -27 -8 -7 -15 -19 -15
-26 0 -14 -3 -22 -27 -69 -5 -11 -8 -31 -6 -44 2 -13 -3 -31 -11 -40 -7 -9
-17 -26 -21 -39 l-7 -23 -21 27 c-17 22 -19 31 -10 55 7 17 8 31 2 35 -5 3 -2
12 6 20 28 29 12 74 -26 74 -29 0 -46 -26 -44 -65 1 -20 -5 -52 -14 -71 -15
-29 -20 -95 -10 -129 7 -24 -14 -95 -27 -95 -20 0 -28 24 -16 47 7 12 7 25 0
37 -14 25 -26 122 -18 151 9 36 -21 63 -50 45 -12 -7 -20 -66 -20 -136 0 -18
-7 -37 -15 -44 -13 -11 -13 -15 0 -33 11 -15 11 -25 3 -41 -11 -20 -11 -20
-21 4 -5 14 -9 42 -8 63 2 20 -2 37 -6 37 -17 0 -9 118 9 136 19 19 9 58 -20
80 -11 8 -12 13 -4 14 13 0 17 42 5 54 -5 4 -9 22 -10 39 -9 146 -9 166 4 171
18 7 16 27 -6 55 -14 18 -24 22 -44 18 -33 -9 -41 -32 -21 -62 17 -26 27 -174
14 -210 -4 -11 -2 -31 3 -46 9 -22 7 -30 -11 -49 l-21 -22 -25 24 c-31 28 -46
75 -36 104 5 11 5 27 0 34 -4 7 -4 26 0 41 7 24 5 32 -13 44 -48 34 -93 10
-77 -41 20 -66 35 -119 33 -124 -1 -3 5 -12 12 -20 12 -14 11 -17 -7 -29 -16
-10 -19 -19 -15 -48 4 -20 15 -42 28 -51 11 -8 17 -17 12 -21 -6 -4 -3 -35 9
-80 21 -85 14 -108 -27 -89 -13 6 -23 18 -23 27 0 9 -5 31 -10 49 -6 17 -9 32
-6 32 2 0 -7 19 -22 41 -21 35 -24 46 -15 65 9 20 7 25 -9 34 -11 6 -25 29
-30 53 -15 58 -45 96 -62 79 -10 -10 -10 -17 0 -32 8 -13 8 -21 1 -25 -6 -5
-5 -15 6 -31 9 -14 13 -34 10 -47 -4 -15 1 -32 15 -50 17 -21 19 -31 10 -47
-8 -16 -5 -30 16 -72 29 -57 38 -105 24 -128 -8 -13 -12 -12 -24 5 -8 11 -21
31 -28 45 -6 14 -18 32 -26 41 -14 18 -25 61 -24 93 1 11 -4 28 -10 40 -6 11
-11 35 -10 53 1 18 -3 33 -8 33 -6 0 -10 6 -10 14 0 8 -13 23 -30 33 -16 9
-30 25 -30 34 0 24 -23 40 -40 29 -12 -7 -13 -15 -3 -39 9 -26 8 -34 -8 -55
-23 -30 -12 -70 23 -87 24 -11 92 -112 94 -139 1 -8 5 -23 9 -33 4 -10 2 -24
-6 -34 -8 -8 -12 -27 -11 -40 3 -22 2 -23 -17 -11 -23 14 -26 25 -12 47 10 16
-7 51 -26 51 -17 0 -84 74 -99 109 -10 24 -50 60 -55 49 -7 -15 -5 -54 3 -59
6 -4 11 -19 13 -35 1 -16 7 -40 13 -54 6 -14 13 -38 17 -53 3 -15 16 -36 28
-47 18 -16 22 -28 19 -55 -4 -32 -6 -33 -23 -22 -36 26 -69 86 -66 120 5 46
-11 73 -47 84 -19 5 -32 16 -35 28 -2 11 -8 26 -14 33 -16 21 -97 72 -113 72
-19 0 -18 -24 1 -40 11 -9 14 -23 10 -44 -5 -25 -1 -36 19 -55 18 -17 23 -28
17 -40 -5 -9 -7 -24 -6 -33 5 -28 -45 -12 -75 24 -14 17 -46 54 -73 81 -42 45
-47 55 -45 94 2 50 -18 76 -65 87 -23 6 -33 1 -58 -25 -16 -17 -29 -42 -29
-56 0 -32 41 -68 81 -71 40 -3 53 -14 85 -68 14 -24 34 -46 44 -49 20 -6 42
-58 34 -80 -9 -22 13 -52 45 -63 16 -6 32 -8 34 -5 3 3 22 -18 42 -45 19 -28
41 -52 48 -55 7 -3 14 -20 15 -38 1 -19 10 -41 20 -49 10 -9 17 -21 15 -27 -3
-7 8 -18 24 -26 28 -15 73 -68 73 -86 0 -5 11 -19 25 -32 13 -13 25 -30 25
-37 0 -23 -45 15 -69 58 -12 22 -36 47 -52 55 -16 9 -29 22 -29 30 0 8 -9 19
-20 25 -11 6 -20 7 -20 3 0 -4 -10 7 -22 24 -22 29 -39 48 -100 113 -14 16
-29 38 -33 49 -5 18 -28 27 -57 22 -5 0 -8 6 -8 14 0 8 -17 26 -37 39 -56 37
-74 53 -72 62 4 24 -3 35 -28 45 -22 8 -30 6 -47 -10 -19 -20 -19 -21 -2 -40
10 -11 21 -20 25 -19 20 2 41 -3 41 -11 0 -6 11 -22 25 -38 104 -115 125 -139
125 -148 0 -6 16 -25 35 -44 19 -18 35 -37 35 -42 0 -5 5 -9 11 -9 14 0 69
-56 69 -70 0 -5 18 -27 40 -50 23 -24 33 -40 25 -40 -16 0 -105 85 -105 100 0
5 -9 11 -19 15 -11 3 -24 19 -30 35 -5 17 -16 31 -23 32 -7 0 -17 2 -23 3 -5
2 -16 3 -24 4 -7 0 -11 7 -8 15 6 14 -21 29 -75 42 -24 5 -26 4 -21 -18 4 -12
13 -28 21 -34 8 -6 12 -16 9 -21 -9 -14 -176 -8 -190 6 -17 17 -47 14 -41 -4
4 -8 12 -15 19 -15 8 0 16 -8 20 -19 3 -10 17 -31 30 -45 25 -27 25 -27 7 -62
-20 -38 -13 -41 -73 25 -16 17 -28 22 -49 18 -22 -5 -30 -1 -40 19 -7 13 -20
25 -29 25 -31 2 -36 4 -61 20 -14 9 -50 25 -80 34 -30 9 -61 24 -68 33 -11 15
-14 15 -28 0 -9 -9 -13 -21 -10 -26 9 -15 150 -92 167 -92 8 0 19 -10 24 -22
6 -14 22 -25 40 -29 17 -3 29 -10 28 -17 -4 -19 56 -54 98 -57 23 -2 43 -6 46
-8 2 -3 -3 -19 -11 -36 l-16 -30 -37 15 c-21 9 -56 24 -79 35 -22 10 -48 19
-57 19 -10 0 -17 8 -17 18 0 10 -10 28 -23 40 -18 17 -31 21 -55 16 -17 -3
-44 -2 -59 4 -21 7 -31 6 -41 -4 -20 -22 -14 -34 23 -50 19 -8 35 -20 35 -27
0 -22 39 -47 74 -47 18 0 39 -6 45 -14 6 -8 32 -17 56 -21 25 -3 52 -13 60
-21 8 -9 18 -13 22 -11 5 3 15 2 24 -2 12 -5 13 -10 4 -28 -11 -21 -13 -21
-41 -7 -17 9 -41 13 -60 10 -17 -4 -34 -3 -38 1 -4 4 -22 6 -41 4 -18 -1 -42
2 -53 8 -12 6 -22 7 -29 0 -6 -6 -18 -2 -33 11 -13 11 -32 20 -44 20 -12 0
-48 12 -81 25 -33 14 -63 25 -67 25 -4 0 -15 -11 -24 -26 -22 -32 -8 -48 44
-49 43 -2 92 -14 109 -27 7 -5 27 -11 45 -14 62 -7 98 -16 104 -25 3 -5 14 -9
24 -9 11 0 31 -12 45 -26 14 -14 35 -25 48 -24 45 4 47 2 33 -37 l-13 -38 -79
3 c-61 2 -83 7 -99 22 -11 10 -33 24 -50 30 -26 10 -32 9 -47 -10 -24 -30 -23
-42 7 -68 22 -19 33 -22 73 -17 31 4 62 1 89 -9 23 -8 51 -12 63 -9 19 5 20 4
8 -23 -16 -39 -14 -37 -51 -42 -68 -8 -101 -2 -129 24 -19 19 -34 25 -50 21
-13 -3 -34 -8 -48 -11 -67 -16 -86 -16 -122 0 -30 13 -43 15 -62 6 -23 -10
-25 -8 -41 31 -52 133 -147 368 -173 427 -10 25 -27 68 -37 95 -10 28 -20 52
-22 55 -7 8 -243 6 -243 -2 0 -5 13 -38 30 -75 16 -36 30 -72 30 -79 0 -8 5
-14 10 -14 6 0 10 -6 10 -13 0 -8 6 -27 14 -43 8 -16 33 -74 56 -129 23 -55
50 -118 60 -140 10 -22 66 -152 125 -290 60 -137 115 -266 123 -285 9 -19 16
-37 17 -40 1 -3 9 -23 19 -45 10 -22 25 -58 33 -80 9 -22 20 -45 25 -52 5 -7
7 -21 3 -33 -9 -28 2 -57 23 -62 15 -4 71 -121 119 -245 3 -7 -2 -13 -11 -13
-9 0 -22 -11 -28 -25 -10 -22 -9 -29 9 -46 19 -20 22 -20 52 -4 21 10 43 14
61 10 25 -6 35 0 69 34 22 23 47 41 56 41 8 0 15 5 15 10 0 6 6 10 14 10 7 0
24 11 38 25 14 13 33 26 44 28 10 2 27 7 36 11 9 4 21 5 27 2 15 -9 59 14 76
41 9 12 25 23 36 23 25 0 61 18 72 37 9 15 76 45 87 38 8 -5 50 31 50 44 0 4
6 8 13 8 6 0 23 3 37 7 l25 8 -24 -18 c-13 -11 -42 -35 -65 -55 -22 -20 -59
-46 -81 -58 -22 -12 -47 -25 -55 -30 -8 -5 -28 -14 -43 -20 -15 -6 -36 -24
-45 -41 -9 -16 -24 -30 -32 -30 -8 0 -28 -15 -45 -33 -16 -18 -47 -44 -67 -57
-45 -30 -53 -46 -30 -59 14 -7 28 -2 62 25 31 25 52 34 68 31 16 -3 32 3 45
17 12 11 35 26 52 32 18 6 35 22 44 40 8 20 28 37 57 50 24 10 44 22 44 27 0
4 9 7 20 7 35 0 20 -63 -20 -83 -13 -7 -37 -31 -53 -55 -15 -23 -38 -44 -51
-48 -33 -8 -59 -12 -78 -13 -10 -1 -24 -16 -32 -35 -9 -21 -27 -40 -48 -50
-19 -9 -42 -32 -53 -54 -11 -20 -25 -42 -30 -48 -17 -17 -55 -35 -64 -30 -12
8 -51 -32 -51 -54 0 -10 12 -28 26 -39 31 -25 61 -15 86 30 9 16 30 34 45 40
78 30 117 55 127 81 9 25 28 34 58 29 4 0 19 16 32 37 34 53 61 78 101 98 20
9 42 28 50 43 13 24 14 25 15 4 0 -25 -28 -61 -117 -150 -35 -35 -63 -70 -63
-79 0 -8 -17 -22 -37 -31 -56 -23 -72 -62 -34 -83 29 -15 48 -3 65 40 11 28
26 43 58 59 60 30 72 41 92 82 15 33 67 69 98 69 16 0 74 66 110 127 18 28 40
54 50 56 10 3 18 2 18 -2 0 -11 -62 -95 -77 -104 -7 -4 -13 -14 -13 -22 0 -8
-12 -23 -27 -32 -37 -24 -69 -60 -92 -103 -11 -19 -32 -49 -47 -65 -16 -17
-42 -47 -57 -68 -15 -20 -36 -37 -46 -37 -21 0 -59 -42 -85 -91 -10 -21 -40
-60 -67 -89 -53 -57 -59 -74 -30 -90 16 -8 27 -2 66 36 25 26 57 61 71 80 14
18 38 36 54 39 23 5 30 14 40 51 15 53 81 131 194 229 19 17 35 36 35 43 1 7
13 25 28 40 15 15 27 33 28 42 3 33 95 111 103 87 9 -29 -19 -67 -96 -129 -15
-12 -22 -29 -22 -52 0 -19 -7 -41 -15 -49 -8 -8 -25 -40 -39 -70 -19 -43 -32
-59 -58 -70 -28 -12 -37 -25 -62 -88 -16 -41 -37 -82 -47 -92 -11 -10 -19 -27
-19 -37 0 -30 35 -25 59 8 l21 27 -19 -50 c-10 -27 -19 -52 -19 -55 0 -3 -3
-12 -6 -20 -11 -32 -129 -408 -143 -455 -8 -27 -17 -57 -21 -65 -3 -8 -6 -18
-6 -22 -1 -3 -4 -10 -8 -14 -5 -4 -8 -18 -8 -30 0 -36 -18 -37 -25 -2 -4 18
-20 71 -35 118 -34 103 -94 293 -95 300 -1 7 -61 200 -89 285 l-23 70 -42 0
c-23 1 -44 -2 -46 -5 -2 -4 61 -202 141 -441 79 -239 146 -441 149 -449 2 -8
15 -49 28 -90 l25 -74 41 134 c23 74 47 149 52 165 17 50 110 349 114 365 2 8
4 16 5 18 2 1 3 8 4 15 0 6 14 12 31 12 17 0 39 5 51 12 16 9 21 9 21 0 1 -7
15 -52 32 -102 17 -49 33 -97 35 -105 2 -8 34 -105 69 -215 36 -110 72 -219
79 -242 7 -24 15 -43 18 -43 3 0 36 96 73 213 82 254 74 230 77 242 1 6 10 30
20 55 10 25 18 50 19 55 6 42 39 124 58 144 13 13 24 31 25 40 1 9 2 23 4 31
1 8 2 21 3 28 1 6 10 21 20 31 11 11 21 32 23 48 2 15 11 34 20 41 16 11 16
17 5 45 -18 45 -15 78 10 113 14 19 19 35 13 44 -4 7 -5 20 0 29 4 9 14 29 21
44 11 25 14 26 20 10 3 -10 3 -25 -1 -33 -10 -20 -10 -31 1 -52 6 -12 6 -18 0
-18 -5 0 -9 -13 -9 -29 1 -17 -6 -41 -15 -55 -19 -28 -22 -62 -7 -71 5 -3 9
-42 9 -87 0 -81 11 -112 32 -91 5 5 12 23 14 39 2 16 4 29 5 29 4 0 10 52 10
78 0 17 4 26 10 22 6 -3 8 -10 5 -15 -3 -5 4 -14 15 -20 28 -15 25 -27 -15
-84 -19 -27 -35 -56 -35 -63 0 -10 -7 -12 -19 -8 -12 3 -25 0 -33 -10 -7 -9
-23 -26 -36 -39 -30 -29 -33 -54 -13 -91 18 -35 22 -85 8 -102 -11 -15 8 -43
28 -43 7 0 18 -23 25 -52 34 -142 113 -251 242 -334 142 -92 353 -107 513 -37
54 23 142 88 188 137 101 111 153 291 125 438 -8 47 -8 61 3 74 17 20 13 56
-7 67 -8 4 -14 23 -14 43 0 36 -25 75 -100 155 -23 24 -36 49 -38 70 -2 19
-10 39 -18 45 -8 6 -14 24 -14 41 0 16 -6 35 -12 42 -11 10 -9 12 7 9 11 -2
21 -12 24 -23 2 -11 21 -37 42 -59 22 -21 39 -45 39 -52 0 -8 9 -19 20 -26 11
-7 20 -18 20 -24 0 -6 19 -43 41 -83 34 -57 46 -71 66 -71 22 0 24 3 19 33 -7
47 -17 77 -26 77 -9 0 -63 80 -66 98 -2 8 -10 22 -18 31 -9 10 -16 28 -16 41
0 13 -9 34 -21 46 -11 12 -22 32 -23 45 -6 41 -17 57 -47 68 -16 5 -29 16 -29
24 0 8 -9 22 -20 32 -20 18 -27 44 -12 46 4 0 18 3 33 5 23 4 25 1 26 -33 1
-39 31 -72 66 -73 11 0 21 -9 24 -20 3 -10 16 -26 29 -35 14 -9 22 -20 19 -25
-3 -4 6 -17 20 -28 19 -16 25 -29 24 -54 -1 -18 -1 -38 0 -45 1 -13 55 -54 74
-57 37 -5 37 -5 37 -499 l0 -482 42 2 c24 1 45 2 48 2 3 1 5 108 4 239 0 130
1 240 2 243 2 3 16 4 31 1 20 -3 39 -19 63 -53 43 -61 196 -268 213 -289 6 -8
23 -32 37 -53 14 -20 28 -37 33 -37 4 0 7 -5 7 -11 0 -23 31 -39 84 -42 37 -2
53 0 49 7 -18 29 -338 452 -347 458 -14 9 0 22 27 24 91 7 159 51 200 129 43
82 26 240 -34 309 -42 49 -133 85 -224 89 -32 1 -44 5 -40 14 7 20 -12 61 -32
67 -10 3 -29 24 -43 46 -14 22 -30 40 -35 40 -6 0 -33 28 -61 61 -27 34 -58
71 -69 83 -11 11 -19 24 -17 29 1 4 -9 13 -23 19 -15 6 -28 23 -31 37 -8 42
-18 54 -61 76 -22 11 -48 27 -58 35 -26 21 -55 100 -37 100 14 0 32 -24 32
-42 0 -26 81 -99 102 -92 10 3 21 -3 27 -15 6 -11 19 -22 29 -25 9 -3 25 -24
35 -47 26 -59 88 -115 129 -116 24 0 33 -4 32 -16 -1 -9 12 -22 28 -30 31 -15
138 -114 138 -127 0 -5 10 -12 23 -16 12 -3 34 -15 49 -25 28 -20 58 -16 58 7
0 20 -72 94 -92 94 -9 0 -36 21 -60 47 -81 87 -87 93 -103 93 -9 0 -15 9 -15
24 0 13 -7 29 -15 36 -14 12 -12 30 4 30 4 0 18 -9 31 -20 13 -11 28 -20 35
-20 7 0 25 -11 41 -25 16 -14 34 -25 40 -25 6 0 28 -16 48 -35 42 -40 51 -42
65 -18 7 14 -10 35 -92 115 -56 55 -102 105 -103 112 -1 8 -14 28 -30 45 -24
28 -33 31 -76 30 -39 -2 -53 2 -70 21 -32 34 -30 46 6 45 35 -1 63 -12 88 -33
10 -8 24 -12 32 -9 8 3 25 -7 40 -26 19 -22 35 -31 59 -32 41 -2 87 -15 87
-25 0 -4 18 -28 40 -53 38 -43 42 -45 88 -42 31 2 60 -2 78 -12 80 -43 109 -9
31 36 -54 31 -78 54 -90 85 -4 10 -16 20 -27 23 -16 4 -19 13 -18 44 1 38 10
49 23 29 4 -6 10 -8 14 -5 5 2 17 -2 27 -10 29 -22 62 -19 70 7 8 27 -8 40
-81 63 l-55 17 0 53 c0 62 8 67 71 49 34 -10 56 -26 83 -59 38 -45 88 -69 115
-55 8 4 28 2 45 -5 28 -12 35 -11 55 4 33 25 22 50 -43 98 -49 37 -57 40 -126
41 -77 2 -128 15 -172 45 -23 15 -28 26 -28 58 0 36 2 39 28 39 15 0 52 -15
81 -34 l53 -34 34 23 c27 19 41 22 59 15 17 -7 27 -4 39 8 19 22 8 41 -29 48
-15 3 -41 12 -57 20 -21 11 -47 14 -90 10 -41 -4 -66 -2 -76 7 -8 6 -17 11
-19 10 -16 -12 -24 4 -22 48 l3 50 40 -7 c46 -7 76 -20 76 -33 0 -14 62 -2 82
16 14 12 24 14 36 7 24 -14 69 -6 77 14 7 19 -17 40 -55 48 -14 3 -32 9 -40
15 -41 25 -63 29 -85 15 -13 -8 -43 -14 -76 -13 -50 2 -54 4 -54 27 0 26 12
29 128 31 27 0 58 4 70 8 12 5 34 4 49 -1 36 -13 73 6 59 30 -8 14 -30 16
-158 17 -141 0 -148 1 -148 20 0 11 7 20 15 20 8 1 25 6 37 13 14 8 24 9 28 2
4 -6 11 -7 17 -4 6 4 29 8 52 9 23 1 49 6 57 10 8 5 21 11 29 12 39 8 150 0
169 -12 6 -3 13 6 17 21 8 30 -10 47 -41 38 -25 -7 -30 -7 -85 3 -75 13 -220
6 -240 -12 -9 -8 -20 -12 -24 -8 -4 5 -13 8 -19 8 -7 0 -13 19 -15 43 -3 36 0
42 17 42 11 0 22 4 25 9 3 4 20 12 38 16 18 4 38 9 43 11 6 1 41 9 80 17 51 9
71 18 73 30 5 24 -21 31 -65 16 -21 -7 -77 -14 -126 -14 l-87 -2 4 34 c4 39
20 61 30 44 11 -17 23 -13 49 14 17 19 35 26 70 29 25 1 53 9 62 16 13 11 20
10 45 -8 46 -34 97 -25 113 20 2 7 6 11 9 8 2 -3 35 -77 72 -165 88 -205 102
-238 134 -309 15 -32 27 -62 28 -65 0 -3 9 -24 19 -46 10 -22 19 -42 20 -45 9
-26 286 -663 295 -679 9 -15 9 -15 10 0 0 9 14 48 31 85 17 38 39 87 49 109 9
22 24 56 33 75 9 19 16 37 16 40 0 3 16 41 36 85 35 75 56 123 60 135 4 11 25
62 44 103 10 23 33 76 51 117 29 68 42 96 85 195 8 17 32 75 55 129 23 54 45
106 50 115 5 9 41 93 81 186 39 94 84 197 99 230 50 110 57 101 -81 100 l-122
0 -18 -40 c-34 -74 -59 -134 -59 -140 0 -6 -8 -27 -45 -110 -7 -16 -34 -84
-60 -150 -26 -66 -51 -129 -56 -140 -13 -31 -208 -514 -230 -572 -11 -29 -23
-53 -27 -53 -4 0 -19 31 -34 68 -15 37 -33 81 -39 97 -7 17 -13 32 -14 35 -5
14 -19 48 -30 75 -7 17 -32 77 -55 135 -23 58 -48 119 -55 135 -7 17 -54 131
-104 255 -49 124 -104 261 -122 305 -18 44 -36 85 -41 90 -10 12 -238 14 -238
3 0 -9 82 -203 105 -250 12 -26 12 -27 -15 -33 -15 -3 -38 -17 -50 -31 -13
-13 -33 -24 -46 -24 -12 0 -39 -7 -60 -16 -22 -9 -65 -17 -97 -19 l-58 -1 2
30 c4 45 14 53 108 97 116 54 116 54 120 74 3 16 -2 17 -35 10 -22 -4 -62 -9
-91 -9 -33 -1 -58 -8 -71 -19 -29 -26 -33 -21 -31 38 1 30 5 52 10 50 13 -9
106 44 124 71 9 14 19 23 22 20 3 -3 12 2 19 12 7 9 25 17 41 17 21 0 29 5 31
22 4 29 -24 34 -70 10 -20 -10 -61 -25 -90 -33 -29 -9 -61 -18 -70 -21 -16 -5
-18 2 -18 47 0 48 2 52 30 63 40 15 38 50 -2 55 -27 3 -28 5 -28 62 0 60 8 74
65 114 16 11 17 16 7 29 -10 11 -21 13 -42 7 l-30 -9 0 397 c1 218 1 409 0
423 l0 26 -115 0 -115 0 0 -294z m-1323 -350 c23 -51 26 -210 5 -218 -17 -6
-41 22 -42 50 -1 11 -4 29 -7 40 -8 26 -7 108 1 140 9 35 24 31 43 -12z m337
-192 c12 -13 15 -28 11 -47 -4 -16 -7 -36 -9 -44 -4 -26 -24 -68 -35 -75 -8
-4 -8 2 -1 20 6 15 6 34 2 43 -10 20 -3 122 7 122 5 0 16 -8 25 -19z m-993
-101 c22 0 49 -37 49 -65 0 -14 7 -28 15 -31 8 -4 15 -14 15 -23 0 -34 -59
-12 -111 41 -40 41 -49 57 -49 85 l0 35 34 -21 c18 -12 40 -21 47 -21z m684
-42 c-4 -16 -2 -28 3 -28 6 0 7 -13 3 -33 -5 -18 -4 -41 0 -52 11 -28 11 -35
-1 -35 -5 0 -10 5 -10 11 0 6 -7 17 -15 25 -8 9 -15 25 -16 37 0 12 -2 30 -4
40 -2 10 4 39 13 63 15 40 17 42 25 22 4 -12 5 -34 2 -50z m-349 7 c3 -13 3
-29 -1 -35 -3 -5 0 -13 8 -16 20 -7 39 -55 46 -115 1 -3 10 -16 21 -29 14 -17
17 -27 10 -41 -16 -28 -28 -31 -28 -6 0 41 -9 62 -29 72 -16 8 -18 15 -12 32
8 22 -3 41 -35 60 -7 5 -16 34 -19 65 -5 55 -5 57 14 48 10 -6 21 -21 25 -35z
m1643 -20 c0 -47 -4 -65 -13 -65 -8 0 -19 -6 -25 -14 -7 -8 -22 -13 -34 -11
-27 5 -38 -2 -56 -37 -8 -16 -20 -28 -27 -28 -7 0 -25 -11 -40 -25 -14 -13
-30 -22 -35 -19 -9 5 -2 31 13 51 6 7 7 17 3 23 -4 6 9 17 29 25 19 8 47 32
63 52 15 21 36 44 46 51 10 8 30 25 44 38 14 13 27 24 29 24 1 0 3 -29 3 -65z
m-1199 5 c-1 -12 -4 -11 -15 4 -8 10 -12 23 -8 29 7 11 23 -12 23 -33z m-207
-18 c9 -10 20 -33 23 -50 6 -28 4 -32 -15 -32 -14 0 -21 6 -21 19 0 11 -4 23
-10 26 -12 7 -13 55 -2 55 5 0 16 -8 25 -18z m-80 -71 c3 -13 1 -33 -5 -44 -9
-18 -12 -16 -31 24 -20 43 -22 58 -11 88 6 17 36 -28 47 -68z m364 57 c-3 -8
-6 -5 -6 6 -1 11 2 17 5 13 3 -3 4 -12 1 -19z m466 -15 c-3 -33 -30 -91 -61
-130 -13 -17 -21 -20 -32 -13 -13 9 -12 12 4 25 10 8 20 25 21 37 1 13 7 34
12 48 6 15 7 32 2 42 -10 18 2 26 36 24 16 -1 20 -8 18 -33z m-1083 -52 c0
-10 11 -30 24 -44 16 -17 22 -33 19 -47 -7 -26 -23 -26 -23 1 0 11 -11 35 -24
52 -13 18 -26 42 -29 54 -4 20 -3 21 14 12 10 -5 19 -18 19 -28z m1194 1 c-33
-22 -62 -50 -73 -70 -7 -12 -17 -20 -22 -16 -6 4 -4 13 7 25 9 10 13 19 9 19
-4 0 0 9 10 20 10 11 21 18 25 15 4 -2 16 2 26 10 10 7 21 11 24 9 2 -3 0 -8
-6 -12z m-378 -24 c-1 -13 -10 -24 -19 -26 -22 -4 -22 17 1 34 22 18 22 18 18
-8z m913 -124 c-7 -8 -17 -13 -23 -11 -10 3 -19 -2 -50 -30 -8 -7 -29 -15 -46
-18 -46 -8 -66 -21 -87 -55 -9 -17 -25 -33 -35 -36 -10 -3 -18 -9 -18 -14 0
-5 -15 -17 -32 -27 -35 -18 -39 -20 -63 -22 -8 0 -17 -12 -21 -26 -6 -26 -16
-29 -48 -16 -17 7 -17 8 -2 24 10 9 23 17 31 17 7 0 15 7 19 15 3 8 9 14 13
13 17 -5 54 24 49 38 -4 9 2 14 17 14 28 0 41 9 56 38 7 13 21 22 35 22 15 0
27 9 34 26 7 14 16 22 22 19 17 -11 48 14 61 49 7 19 16 33 20 31 11 -8 60 36
53 47 -4 6 0 14 7 19 11 7 15 -3 17 -47 2 -33 -2 -62 -9 -70z m-1803 68 c5 -4
26 -29 45 -57 18 -27 40 -56 47 -63 7 -8 10 -18 7 -23 -11 -18 -24 -9 -35 26
-9 29 -17 35 -48 41 -42 8 -52 18 -52 57 0 26 14 34 36 19z m1444 -21 c0 -4
-11 -20 -24 -34 -14 -15 -27 -36 -31 -47 -3 -11 -15 -20 -25 -20 -10 0 -20 -7
-24 -15 -3 -8 -13 -14 -23 -14 -16 1 -16 2 -1 6 9 2 20 13 23 23 3 10 14 20
25 23 20 5 45 51 41 75 -1 6 7 12 19 12 11 0 20 -4 20 -9z m-1275 -71 c3 -5 2
-10 -4 -10 -5 0 -13 5 -16 10 -3 6 -2 10 4 10 5 0 13 -4 16 -10z m1365 0 c0
-9 -14 -13 -24 -7 -3 1 -21 -13 -40 -32 -40 -39 -62 -36 -25 2 39 40 89 61 89
37z m-287 -15 c7 -18 -6 -27 -27 -19 -19 7 -21 20 -3 27 20 9 25 8 30 -8z
m521 -109 c-27 -23 -49 -40 -51 -38 -2 1 -16 -4 -31 -12 -15 -7 -36 -12 -47
-10 -13 2 -38 -14 -72 -45 -28 -27 -60 -51 -70 -54 -10 -2 -26 -8 -35 -12 -14
-5 -18 -2 -18 14 0 20 9 25 37 22 7 -1 18 7 25 19 7 11 17 20 23 20 6 0 17 9
25 20 8 11 20 20 27 20 7 0 23 11 35 25 11 13 25 22 30 19 25 -16 132 50 140
87 2 7 8 19 13 25 7 8 11 1 13 -24 3 -32 -2 -40 -44 -76z m-2060 29 c8 -8 21
-15 30 -15 17 0 76 -54 76 -70 0 -18 -39 -11 -57 10 -10 11 -23 20 -30 20 -7
0 -13 4 -13 8 0 4 -14 16 -30 26 -17 9 -28 22 -25 27 9 14 32 11 49 -6z m-73
-82 c19 -9 40 -23 47 -30 7 -7 20 -13 27 -13 11 0 45 -51 45 -66 0 -9 -35 12
-56 32 -12 13 -30 24 -39 24 -9 0 -28 8 -43 17 -15 9 -28 18 -30 19 -3 1 9 34
13 34 1 0 17 -8 36 -17z m2153 -84 c-15 -16 -37 -29 -48 -29 -12 0 -30 -7 -40
-15 -23 -17 -46 -20 -46 -4 0 5 4 8 8 5 11 -7 24 4 45 37 10 15 21 27 26 27 5
0 24 14 42 31 l34 32 3 -28 c3 -19 -5 -36 -24 -56z m-1898 26 c10 -8 14 -15 8
-15 -5 0 -19 7 -30 15 -10 8 -14 15 -8 15 5 0 19 -7 30 -15z m-264 -65 c18
-16 38 -30 44 -30 7 0 22 -9 35 -19 l24 -20 -40 9 c-22 5 -44 15 -50 23 -5 7
-23 17 -40 21 -54 14 -75 46 -31 46 14 0 40 -13 58 -30z m2003 -10 c3 -5 1
-10 -4 -10 -6 0 -11 5 -11 10 0 6 2 10 4 10 3 0 8 -4 11 -10z m-57 -22 c-9
-13 -25 -24 -37 -24 -11 -1 -27 -7 -36 -14 -8 -7 -15 -9 -15 -4 0 9 57 47 72
48 3 1 10 4 14 9 15 15 16 6 2 -15z m242 -44 c0 -35 -3 -45 -14 -41 -7 3 -26
-1 -42 -10 -16 -8 -42 -16 -58 -19 -15 -2 -33 -8 -40 -13 -6 -5 -40 -16 -76
-25 -60 -14 -66 -14 -78 2 -22 29 9 46 86 48 93 3 92 2 92 19 0 9 10 20 23 25
12 5 40 20 62 34 22 14 41 26 43 26 1 0 2 -21 2 -46z m-2300 -4 c0 -5 -5 -10
-11 -10 -5 0 -7 5 -4 10 3 6 8 10 11 10 2 0 4 -4 4 -10z m124 -40 c36 -13 32
-25 -6 -24 -22 1 -34 6 -36 17 -4 19 6 21 42 7z m86 -46 c0 -2 -7 -4 -15 -4
-8 0 -15 4 -15 10 0 5 7 7 15 4 8 -4 15 -8 15 -10z m-187 -23 c15 -6 27 -7 27
-3 1 10 40 -38 40 -49 0 -4 -10 -5 -22 -2 -13 3 -48 6 -78 8 -30 1 -58 3 -63
4 -4 0 -1 14 7 30 16 30 35 33 89 12z m2277 -33 c0 -12 -3 -18 -6 -15 -4 3
-14 2 -23 -2 -9 -5 -31 -11 -49 -14 -32 -5 -33 -5 -19 16 14 21 75 48 90 40 4
-2 7 -14 7 -25z m-2072 -23 c13 -4 22 -15 22 -27 0 -18 -2 -19 -16 -7 -8 7
-30 14 -47 15 -63 3 -64 3 -42 19 19 15 36 15 83 0z m1937 -1 c13 -5 7 -11
-22 -24 -45 -20 -59 -17 -35 10 17 21 30 24 57 14z m-2087 -56 c86 -19 82 -33
-11 -32 -79 0 -167 24 -167 44 0 11 110 3 178 -12z m-701 -64 c17 -23 94 -30
124 -11 33 20 76 29 84 17 3 -5 15 -10 26 -10 23 0 23 -3 4 -39 -10 -20 -22
-28 -41 -28 -14 0 -33 -8 -42 -17 -16 -16 -16 -18 1 -31 11 -7 25 -11 33 -8
21 8 17 -8 -12 -50 -14 -21 -29 -35 -34 -32 -5 3 -20 0 -32 -6 -13 -7 -54 -13
-92 -13 l-68 -1 -18 40 c-10 22 -34 79 -53 127 l-36 87 37 3 c52 4 104 -8 119
-28z m863 26 c0 -5 -4 -10 -10 -10 -5 0 -10 5 -10 10 0 6 5 10 10 10 6 0 10
-4 10 -10z m1994 -10 c8 -10 5 -11 -16 -8 -16 3 -28 1 -28 -3 0 -5 -15 -8 -32
-8 -33 0 -73 -5 -94 -12 -17 -6 -19 14 -3 22 60 29 150 33 173 9z m61 -1 c-6
-15 -45 -24 -45 -11 0 7 42 30 48 26 1 0 0 -8 -3 -15z m-2236 -64 c7 -7 -6
-10 -37 -11 -26 -1 -67 -5 -91 -9 -46 -8 -51 8 -7 25 29 11 123 7 135 -5z
m151 -9 c-6 -8 -19 -12 -27 -9 -14 6 -14 8 3 14 30 12 37 10 24 -5z m2087 -40
c-6 -15 -63 -19 -89 -5 -29 16 -12 28 31 23 25 -3 42 0 47 8 10 15 19 -6 11
-26z m-199 12 c8 -10 3 -14 -19 -15 -28 -2 -37 6 -22 20 10 11 30 8 41 -5z
m-2155 -49 c15 1 27 -3 27 -9 0 -12 -1 -12 -61 -15 -25 -1 -60 -7 -78 -15 -36
-15 -46 -10 -37 18 5 14 13 18 26 15 12 -3 20 0 20 7 0 9 10 10 38 5 20 -4 49
-7 65 -6z m2346 -43 c6 -4 11 -13 11 -20 0 -9 -20 -12 -77 -9 -93 3 -123 10
-123 24 0 7 11 9 28 6 15 -3 34 -2 41 2 15 10 103 7 120 -3z m-2125 -46 c42
-19 66 -37 30 -23 -8 3 -25 1 -37 -5 -33 -16 -84 -24 -158 -26 -39 -1 -72 -7
-82 -15 -10 -8 -28 -11 -44 -8 -18 3 -44 -4 -75 -19 -44 -22 -78 -31 -78 -19
0 21 36 85 50 90 10 3 44 -1 74 -8 54 -15 56 -14 83 9 15 13 30 24 33 25 3 0
33 1 67 2 34 1 65 6 69 10 11 10 17 9 68 -13z m1981 -47 c50 -8 70 -7 118 2
l38 8 -3 -39 c-2 -32 -7 -40 -25 -42 -13 -2 -37 6 -53 18 -26 18 -39 21 -79
15 -32 -4 -51 -3 -56 5 -4 6 -20 8 -41 4 -35 -6 -40 -1 -28 31 6 14 15 16 48
10 23 -3 59 -9 81 -12z m-2628 -17 c1 -1 -8 -23 -19 -49 -14 -31 -27 -47 -39
-47 -25 0 -51 -29 -44 -49 16 -42 -14 10 -33 58 -27 65 -27 71 -4 71 9 1 28 7
42 15 20 11 82 12 97 1z m732 -37 c-19 -12 -39 -11 -39 1 0 15 44 30 49 18 2
-6 -3 -14 -10 -19z m-92 -5 c-3 -3 -12 -4 -19 -1 -8 3 -5 6 6 6 11 1 17 -2 13
-5z m-74 -13 c17 -6 17 -8 4 -19 -15 -12 -97 -28 -97 -18 0 17 14 34 25 30 7
-3 16 -1 20 5 7 12 21 13 48 2z m-149 -35 c-3 -8 -13 -12 -25 -9 -27 7 -24 23
6 23 17 0 23 -4 19 -14z m2198 -16 c25 -26 78 -30 106 -8 9 8 19 5 37 -12 26
-24 35 -66 13 -57 -7 2 -53 16 -103 31 -139 42 -176 57 -169 68 10 17 95 0
116 -22z m-2366 -5 c11 -11 20 -12 34 -5 26 14 40 12 40 -5 0 -19 -37 -38 -72
-37 -16 0 -40 -5 -54 -13 -15 -7 -32 -11 -40 -8 -21 8 6 54 41 69 38 17 34 17
51 -1z m449 -15 c-5 -9 -33 -17 -110 -35 -21 -4 -27 -3 -20 4 6 6 27 13 48 15
20 3 45 10 55 15 22 13 35 14 27 1z m-205 -60 c-32 -27 -90 -50 -127 -50 -10
0 -34 -11 -53 -25 -19 -14 -44 -25 -56 -25 -13 0 -26 -5 -29 -10 -4 -6 -11 -8
-16 -5 -5 4 -9 1 -9 -4 0 -6 -3 -10 -7 -9 -5 0 -34 -11 -67 -26 -32 -15 -60
-26 -61 -24 -1 2 4 18 12 36 9 23 22 34 43 39 17 3 30 9 30 14 0 5 6 9 14 9 8
0 21 6 29 14 7 8 27 16 43 18 16 1 32 6 35 11 7 9 39 16 99 19 25 2 50 7 55
11 24 19 81 44 89 40 4 -3 -6 -18 -24 -33z m1990 25 c7 -8 19 -15 28 -15 8 0
23 -7 33 -16 9 -8 23 -16 31 -18 7 -1 19 -5 26 -10 8 -5 33 -10 55 -12 129
-12 122 -9 125 -40 3 -29 3 -29 -53 -27 -57 1 -85 14 -85 39 0 8 -10 14 -22
15 -42 1 -62 8 -74 23 -6 9 -18 16 -27 16 -9 0 -18 4 -21 9 -3 5 -14 7 -24 5
-9 -2 -23 0 -31 5 -12 8 -12 12 -2 25 17 20 25 20 41 1z m-2560 -36 c0 -6 -4
-7 -10 -4 -5 3 -10 11 -10 16 0 6 5 7 10 4 6 -3 10 -11 10 -16z m798 -19 c-2
-6 -8 -6 -18 0 -13 9 -13 11 0 20 15 10 25 0 18 -20z m-68 -15 c-7 -8 -19 -15
-27 -15 -13 0 -13 3 -3 15 7 8 19 15 27 15 13 0 13 -3 3 -15z m1765 -15 c4 -6
12 -9 18 -8 7 2 22 -7 35 -20 12 -12 32 -22 44 -22 12 0 29 -7 38 -15 10 -9
28 -18 41 -20 13 -3 25 -9 27 -15 2 -5 14 -10 27 -10 13 0 30 -8 37 -18 18
-26 56 -45 79 -39 16 4 19 0 19 -36 l-1 -42 -14 27 c-9 16 -27 29 -47 33 -17
4 -43 20 -58 36 -20 23 -37 30 -80 34 -35 3 -62 12 -75 25 -42 40 -93 80 -104
80 -6 0 -11 5 -11 10 0 13 17 13 25 0z m-1855 -35 c-7 -8 -9 -15 -4 -15 5 -1
-9 -10 -31 -21 -37 -19 -79 -27 -148 -28 -28 -1 -81 -46 -72 -61 3 -4 -6 -11
-20 -14 -14 -4 -35 -18 -47 -31 -12 -14 -28 -25 -35 -25 -8 0 -16 -7 -19 -15
-8 -20 -120 -74 -166 -79 -32 -4 -38 -2 -38 14 0 10 5 22 10 25 6 4 8 10 5 15
-7 12 61 79 93 92 15 6 43 11 63 13 21 1 47 11 59 23 17 16 27 19 41 12 19
-11 49 -4 49 11 0 11 35 30 68 35 15 3 32 11 38 19 6 8 20 15 30 15 11 0 29 6
40 14 18 13 82 25 93 19 2 -1 -2 -9 -9 -18z m201 -17 c-23 -24 -94 -51 -100
-37 -5 15 5 22 33 22 16 0 31 9 41 23 9 14 21 21 30 18 12 -5 11 -9 -4 -26z
m39 -73 c-19 -19 -42 -42 -50 -50 -39 -41 -104 -85 -125 -85 -44 0 -35 18 19
40 36 14 57 30 65 48 16 34 67 68 121 81 3 0 -11 -15 -30 -34z m130 -11 c0 -8
-4 -12 -10 -9 -5 3 -10 10 -10 16 0 5 5 9 10 9 6 0 10 -7 10 -16z m1518 0 c12
-8 26 -12 32 -9 12 8 53 -33 45 -45 -4 -6 -15 -4 -28 5 -12 8 -30 15 -40 15
-10 0 -29 11 -43 25 -22 22 -23 25 -7 25 10 0 29 -7 41 -16z m-74 -56 c15 -25
24 -58 16 -58 -6 0 -10 3 -10 8 0 4 -14 15 -31 24 -33 19 -32 39 3 33 11 -3
21 -6 22 -7z m-1564 -37 c0 -25 -16 -44 -51 -61 -56 -29 -57 -25 -8 25 44 44
59 53 59 36z m140 -5 c0 -3 -4 -8 -10 -11 -5 -3 -10 -1 -10 4 0 6 5 11 10 11
6 0 10 -2 10 -4z m90 -11 c0 -19 -88 -111 -97 -102 -3 4 3 16 15 27 12 12 22
25 22 30 0 13 41 60 52 60 4 0 8 -7 8 -15z m1536 -122 c58 -63 19 -66 -45 -2
-37 36 -37 39 -10 39 12 0 36 -16 55 -37z m-520 -15 c5 -13 9 -26 10 -30 1 -5
2 -9 3 -10 1 -2 4 -20 6 -41 3 -27 1 -37 -8 -34 -7 2 -11 13 -9 24 2 11 -8 46
-22 77 -23 51 -23 55 -6 46 10 -5 22 -20 26 -32z m93 29 c-2 -7 4 -24 11 -40
7 -15 11 -30 7 -33 -10 -10 -27 6 -27 26 0 11 -9 24 -20 30 -11 6 -19 14 -16
18 8 13 47 12 45 -1z m-1066 -22 c-3 -9 -8 -14 -10 -11 -3 3 -2 9 2 15 9 16
15 13 8 -4z m879 -20 c-2 -14 2 -33 9 -43 7 -9 4 -8 -6 3 -11 11 -28 28 -38
37 -19 17 -18 18 4 27 31 11 37 7 31 -24z m-792 -5 c-25 -36 -25 -36 -27 -9
-2 17 18 33 45 38 2 1 -6 -12 -18 -29z m160 -20 c-6 -11 -5 -21 3 -29 9 -10 8
-14 -5 -22 -35 -20 -50 -42 -46 -71 5 -32 2 -34 -17 -15 -8 9 -10 19 -4 28 5
8 9 24 9 35 0 12 6 27 14 33 8 7 12 20 9 30 -6 24 26 58 38 40 4 -7 4 -20 -1
-29z m-270 19 c0 -15 -30 -67 -58 -103 -13 -16 -22 -38 -21 -50 4 -38 -48
-135 -83 -156 -18 -11 -37 -21 -41 -23 -4 -1 -13 -20 -18 -42 -6 -22 -14 -54
-18 -72 -5 -18 -22 -60 -39 -94 -34 -70 -35 -69 -61 29 -11 38 -10 42 19 70
16 17 30 40 30 51 0 12 13 33 28 48 16 16 43 54 61 86 18 31 37 58 42 58 5 1
13 2 19 3 17 2 31 23 36 56 5 32 58 128 78 142 16 11 26 10 26 -3z m356 -59
c-1 -27 -5 -53 -9 -56 -9 -9 -27 5 -27 22 0 8 -4 14 -10 14 -5 0 -2 16 7 35
25 52 42 45 39 -15z m382 2 c12 -26 24 -70 25 -97 2 -28 11 -62 20 -75 9 -14
17 -30 17 -37 0 -6 5 -24 12 -40 6 -15 12 -51 13 -80 2 -43 -1 -52 -16 -56
-11 -3 -21 -2 -23 1 -6 10 -28 94 -32 122 -11 72 -17 128 -16 150 0 14 -5 32
-13 40 -19 22 -23 43 -14 62 6 10 5 19 -1 23 -12 7 -14 35 -2 35 4 0 17 -22
30 -48z m-293 -2 c-2 -16 1 -32 6 -35 5 -4 5 -14 -1 -26 -18 -33 -31 -10 -26
44 3 29 5 53 5 55 1 2 5 1 10 -3 6 -3 8 -19 6 -35z m195 9 c0 -27 -2 -30 -15
-19 -11 9 -12 17 -4 31 14 27 19 24 19 -12z m-563 -17 c-10 -10 -17 -24 -17
-30 0 -7 -4 -12 -10 -12 -5 0 -10 5 -10 12 0 15 30 48 43 48 6 0 3 -8 -6 -18z
m1217 2 c9 -3 16 -10 16 -15 0 -12 37 -49 49 -49 5 0 12 -8 15 -18 3 -9 29
-35 57 -57 59 -47 119 -117 119 -139 0 -8 13 -22 28 -30 27 -14 92 -74 92 -85
0 -7 -110 -8 -111 -1 -1 3 -2 17 -3 32 -2 29 -41 78 -63 78 -18 0 -109 91
-117 117 -4 12 -13 24 -21 27 -8 3 -12 14 -10 25 4 21 -34 66 -57 66 -7 0 -14
12 -16 28 -4 29 -2 30 22 21z m-321 -64 c4 -17 13 -30 22 -30 11 0 12 -5 5
-24 -7 -19 -3 -34 22 -72 17 -27 31 -53 32 -59 1 -5 5 -16 10 -23 4 -7 9 -27
11 -45 3 -19 15 -40 30 -52 14 -12 25 -26 25 -32 0 -6 11 -18 24 -26 13 -9 26
-27 28 -41 3 -14 4 -26 2 -26 -1 0 -26 16 -55 35 -30 19 -59 35 -66 35 -18 0
-41 39 -36 61 3 10 0 19 -5 19 -11 0 -9 63 3 101 4 13 -3 24 -29 41 -44 29
-74 77 -55 88 8 6 12 24 11 50 -3 47 12 47 21 0z m-326 -34 c-9 -47 -8 -59 6
-74 10 -10 17 -28 17 -39 0 -11 7 -36 15 -56 16 -39 14 -60 -10 -107 -12 -23
-22 -30 -38 -28 -20 3 -22 10 -25 65 -1 34 2 64 6 67 12 7 -16 138 -31 148 -9
6 -7 12 6 22 9 7 17 18 17 24 0 15 30 43 39 38 4 -3 3 -30 -2 -60z m-102 -14
c-8 -24 -45 -70 -41 -52 2 8 6 23 11 32 4 10 2 32 -4 49 -6 18 -11 33 -11 35
0 2 11 -8 25 -22 16 -16 24 -32 20 -42z m515 49 c0 -11 8 -26 18 -33 33 -25
62 -71 62 -100 0 -16 5 -38 10 -49 6 -10 7 -19 3 -19 -11 0 -35 39 -29 48 7
13 -49 117 -69 127 -23 12 -30 45 -9 45 8 0 14 -9 14 -19z m-930 -5 c0 -3 -4
-8 -10 -11 -5 -3 -10 -1 -10 4 0 6 5 11 10 11 6 0 10 -2 10 -4z m720 -41 c-1
-4 7 -14 17 -23 20 -18 25 -73 7 -79 -12 -4 -46 95 -38 109 6 10 17 4 14 -7z
m-832 -17 c-8 -13 -21 -41 -28 -63 -11 -35 -49 -85 -65 -85 -25 0 32 119 72
149 36 26 39 26 21 -1z m302 -40 c0 -44 -17 -43 -20 2 -3 34 -2 40 10 40 6 0
10 -19 10 -42z m-222 2 c-1 -17 -13 -40 -27 -53 l-24 -22 7 25 c4 14 9 33 11
43 10 46 36 51 33 7z m100 -65 c1 -19 -5 -40 -13 -48 -17 -17 -20 -37 -11 -59
9 -20 4 -64 -6 -60 -5 1 -8 4 -8 7 0 3 -6 18 -14 33 -15 29 -15 57 -1 125 6
29 12 37 29 37 19 0 23 -6 24 -35z m342 -26 c0 -29 4 -49 11 -49 14 0 2 -69
-15 -90 -20 -24 -25 -47 -13 -59 8 -8 8 -11 -1 -11 -18 0 -40 61 -35 95 3 17
6 45 7 62 2 18 9 39 15 47 6 8 11 18 10 22 -4 23 2 45 11 39 6 -3 10 -28 10
-56z m-113 -42 c-1 -18 2 -43 6 -57 4 -18 0 -36 -14 -59 l-20 -34 -14 27 c-9
16 -12 41 -8 64 5 33 8 59 12 109 1 15 3 15 20 -1 13 -11 19 -30 18 -49z
m-384 20 c-3 -12 -10 -28 -16 -35 -18 -23 -27 9 -11 40 17 33 35 29 27 -5z
m906 -105 c-21 -8 -37 7 -32 29 l6 22 18 -24 c10 -13 14 -26 8 -27z m-1046 16
c-4 -7 -8 -15 -8 -18 -10 -69 -33 -112 -84 -159 -42 -39 -46 -54 -26 -102 7
-18 47 -30 63 -20 19 12 35 56 38 105 1 28 3 54 3 57 1 4 11 19 23 34 12 16
24 38 25 48 4 23 33 48 46 40 5 -3 15 -21 23 -39 13 -31 12 -36 -5 -53 -11
-11 -17 -28 -15 -38 3 -12 -6 -25 -30 -40 -27 -17 -34 -28 -30 -45 15 -79 15
-94 -8 -128 -29 -46 -32 -120 -5 -120 10 0 16 4 12 9 -3 5 6 19 21 30 15 12
24 27 22 38 -2 10 5 34 17 53 37 62 58 118 52 141 -3 12 1 32 9 44 8 13 14 32
12 42 -2 14 4 19 30 21 28 3 32 0 32 -22 0 -20 -78 -297 -97 -346 -3 -8 -7
-19 -8 -25 -8 -33 -97 -320 -100 -324 -7 -6 -15 4 -20 25 -2 11 -42 134 -89
274 -47 140 -86 265 -86 277 0 12 6 26 13 30 19 12 53 65 60 94 7 28 92 129
109 129 5 0 6 -6 1 -12z m940 -97 c4 -1 7 -10 7 -20 0 -11 8 -22 18 -25 9 -3
26 -26 38 -51 17 -36 18 -49 9 -62 -15 -20 8 -73 31 -73 19 0 17 -20 -5 -54
-11 -17 -18 -33 -15 -38 3 -4 7 -17 9 -29 2 -12 9 -27 16 -35 16 -20 73 -18
91 4 20 21 17 91 -4 103 -40 22 -63 48 -52 59 16 16 5 68 -17 75 -12 4 -19 16
-20 33 0 15 -2 38 -5 52 -6 40 7 52 43 38 25 -9 31 -17 31 -39 -1 -14 13 -51
31 -81 17 -31 31 -62 31 -69 0 -8 7 -22 14 -32 13 -17 15 -17 30 -1 12 12 15
25 10 48 -3 17 -10 33 -15 36 -9 6 0 50 10 50 4 0 17 -12 30 -26 28 -33 93
-134 86 -134 -3 0 -1 -8 4 -18 6 -11 13 -32 17 -48 10 -47 12 -194 2 -194 -5
0 -7 -4 -4 -9 3 -4 -3 -32 -14 -61 -78 -213 -290 -329 -520 -286 -42 8 -160
65 -160 77 0 5 -5 9 -10 9 -22 0 -92 87 -125 155 -55 114 -64 242 -25 352 9
26 16 31 38 30 22 -2 27 2 28 23 2 49 25 105 50 123 24 18 26 18 45 1 12 -11
16 -21 10 -28 -13 -16 -17 -59 -6 -76 20 -33 21 -107 2 -128 -25 -28 -21 -65
11 -95 15 -15 33 -27 38 -27 13 0 44 70 44 98 0 11 -7 28 -16 37 -13 12 -16
38 -16 119 0 61 4 112 11 125 10 17 10 26 0 37 -9 11 -5 17 22 28 37 15 51 13
43 -8 -4 -11 30 -73 51 -94 7 -7 54 52 55 67 0 8 -7 22 -16 32 -19 21 -11 39
14 34 9 -2 20 -4 25 -4z m953 -25 c94 -16 136 -70 139 -176 4 -140 -56 -189
-231 -186 l-89 1 0 129 -1 128 28 10 c15 6 29 14 29 19 6 42 -8 69 -35 70 -20
0 -20 1 -1 8 22 9 100 7 161 -3z m-2162 -131 c-4 -8 -8 -15 -10 -15 -2 0 -4 7
-4 15 0 8 4 15 10 15 5 0 7 -7 4 -15z"/>
<path d="M2798 5128 c-67 -17 -38 -58 36 -52 21 2 45 9 52 15 8 6 20 9 28 6 8
-3 19 0 26 7 8 11 3 15 -22 20 -69 12 -84 13 -120 4z"/>
<path d="M4802 3570 c-5 -14 -9 -45 -8 -70 1 -36 5 -45 20 -48 27 -6 47 25 39
57 -3 14 -9 28 -12 31 -4 3 -12 16 -18 30 l-11 25 -10 -25z"/>
<path d="M4455 3440 c-3 -6 -3 -19 0 -31 10 -31 49 -21 53 14 3 23 0 27 -22
27 -14 0 -28 -5 -31 -10z"/>
<path d="M4766 6937 c-11 -8 -16 -19 -12 -25 4 -7 3 -12 -2 -12 -15 0 -22 -39
-12 -65 12 -30 49 -43 65 -22 6 9 11 42 10 74 -1 63 -14 76 -49 50z"/>
<path d="M4577 6863 c-3 -3 -3 -11 0 -19 7 -18 33 -18 33 0 0 14 -24 29 -33
19z"/>
<path d="M5116 6851 c-3 -4 1 -16 8 -27 12 -15 16 -16 30 -5 12 10 14 17 5 27
-13 16 -35 18 -43 5z"/>
<path d="M4549 6765 c-7 -22 -11 -50 -10 -62 1 -12 -5 -33 -15 -48 -16 -24
-16 -27 0 -44 15 -17 22 -33 25 -62 1 -4 9 -9 19 -12 12 -3 30 7 52 29 27 28
31 38 25 61 -5 16 -10 35 -12 43 -2 8 -6 37 -8 63 -4 53 -17 76 -45 74 -12 -1
-22 -15 -31 -42z"/>
<path d="M4716 6785 c-18 -14 -20 -26 -13 -97 4 -37 21 -68 39 -68 16 0 88 76
93 98 4 22 -38 72 -61 72 -7 0 -18 2 -26 5 -7 2 -21 -2 -32 -10z"/>
<path d="M5107 6776 c-8 -20 20 -43 35 -28 14 14 3 42 -16 42 -7 0 -16 -6 -19
-14z"/>
<path d="M4095 6739 c-8 -23 7 -45 23 -35 11 7 5 43 -8 51 -5 3 -12 -4 -15
-16z"/>
<path d="M5481 6726 c-17 -20 15 -52 35 -35 19 15 18 22 -5 36 -15 10 -22 9
-30 -1z"/>
<path d="M3693 6713 c-6 -15 30 -46 59 -50 14 -2 15 1 7 26 -12 33 -57 49 -66
24z"/>
<path d="M3924 6704 c3 -9 6 -18 6 -20 0 -3 9 0 20 6 24 13 17 30 -12 30 -14
0 -18 -5 -14 -16z"/>
<path d="M5444 6669 c-3 -6 0 -17 8 -25 13 -13 16 -13 27 0 7 8 10 20 6 26 -8
13 -32 13 -41 -1z"/>
<path d="M3765 6609 c-4 -6 -4 -13 -1 -16 3 -3 1 -11 -4 -18 -7 -8 0 -23 23
-50 40 -47 67 -44 67 7 -1 37 -14 59 -47 76 -27 15 -30 15 -38 1z"/>
<path d="M5534 6508 c-3 -13 -22 -42 -40 -65 -19 -23 -34 -46 -34 -52 0 -6 -9
-20 -20 -31 -22 -22 -17 -50 10 -50 19 0 43 23 34 33 -3 3 6 23 20 44 14 20
26 42 26 48 0 6 14 25 30 44 32 34 32 51 0 51 -11 0 -22 -10 -26 -22z"/>
<path d="M3142 6281 c4 -13 18 -16 19 -4 0 4 -5 9 -11 12 -7 2 -11 -2 -8 -8z"/>
<path d="M3177 6233 c3 -10 11 -25 18 -33 7 -8 15 -23 18 -32 4 -12 17 -18 36
-18 18 0 32 7 36 18 20 44 14 52 -51 70 -56 16 -64 15 -57 -5z"/>
<path d="M3302 6158 c-24 -24 -4 -88 29 -88 8 -1 32 -9 54 -20 47 -23 59 -25
48 -7 -4 6 -8 18 -9 25 -1 7 -8 20 -15 29 -7 8 -14 22 -15 30 -6 39 -64 59
-92 31z"/>
<path d="M3070 6065 c-17 -20 -6 -43 27 -56 16 -6 41 -17 57 -25 16 -8 37 -14
48 -14 23 0 24 29 1 37 -10 4 -20 9 -23 12 -17 20 -74 61 -85 61 -7 0 -18 -7
-25 -15z"/>
<path d="M1328 5994 c-2 -1 -32 -4 -67 -5 -76 -3 -182 -30 -252 -64 -68 -32
-149 -85 -149 -96 0 -5 -5 -9 -10 -9 -10 0 -28 -17 -93 -88 -39 -43 -102 -149
-131 -221 -13 -34 -23 -61 -20 -61 3 0 0 -9 -5 -19 -6 -10 -13 -34 -15 -52 -3
-19 -10 -59 -15 -89 -6 -31 -11 -67 -11 -80 0 -14 0 -52 -1 -85 -2 -61 7 -184
17 -226 3 -13 7 -33 9 -44 16 -111 108 -278 208 -379 79 -80 152 -129 248
-166 99 -38 180 -52 309 -53 315 -2 530 120 692 393 l47 78 -24 16 c-13 9 -26
16 -29 16 -2 0 -37 18 -76 41 -57 32 -74 38 -81 27 -5 -7 -26 -42 -46 -78 -45
-76 -150 -186 -213 -222 -154 -89 -362 -93 -522 -12 -109 55 -213 191 -257
338 -26 84 -29 102 -37 196 l-5 75 638 0 638 0 -1 85 c-3 128 -22 241 -53 315
-5 11 -15 35 -22 54 -23 62 -105 175 -168 233 -83 77 -185 132 -290 157 -76
18 -205 33 -213 25z m166 -243 c37 -12 86 -33 108 -47 51 -32 123 -107 142
-149 16 -33 38 -85 41 -97 2 -5 3 -9 5 -10 3 -4 9 -37 15 -88 l7 -45 -494 1
c-271 1 -496 2 -499 3 -7 1 2 53 20 119 24 88 98 191 171 243 19 13 37 26 40
30 3 3 22 13 43 23 101 47 284 55 401 17z"/>
<path d="M8489 5996 c-2 -2 -33 -6 -69 -9 -251 -18 -471 -169 -590 -407 -33
-65 -73 -170 -65 -170 3 0 0 -12 -6 -26 -5 -15 -12 -42 -14 -60 -3 -19 -7 -51
-10 -71 -7 -44 -8 -249 -2 -278 3 -11 8 -40 12 -65 4 -25 9 -54 11 -65 8 -46
70 -185 109 -245 23 -36 64 -88 91 -116 55 -57 144 -130 144 -119 0 5 8 1 18
-7 36 -32 161 -78 257 -94 104 -17 292 -6 395 23 71 20 189 78 223 109 14 13
29 24 32 24 3 0 22 18 44 40 92 95 197 260 178 279 -6 6 -15 11 -19 11 -5 0
-39 17 -76 38 -102 58 -97 58 -127 -1 -86 -163 -229 -283 -378 -317 -76 -17
-215 -14 -281 6 -44 13 -136 57 -136 65 0 5 -6 9 -12 9 -21 0 -121 115 -155
177 -48 90 -77 195 -89 326 -5 52 -3 67 8 68 7 1 294 2 638 3 l625 1 -1 80
c-2 106 -11 173 -33 254 -21 75 -61 174 -73 179 -4 2 -8 8 -8 13 0 19 -139
189 -155 189 -3 0 -24 15 -48 33 -44 33 -139 79 -182 87 -3 1 -19 6 -37 11
-18 5 -58 12 -88 15 -30 3 -71 7 -91 9 -20 2 -38 2 -40 1z m126 -231 c131 -23
251 -113 309 -231 15 -31 29 -63 31 -72 3 -10 8 -33 13 -52 4 -19 8 -48 8 -65
l-1 -30 -490 -1 c-269 0 -493 4 -496 9 -8 11 15 110 38 162 45 104 128 191
228 241 39 18 87 36 109 38 21 3 40 7 43 9 6 7 159 0 208 -8z"/>
<path d="M6349 4948 c-7 -24 -4 -40 12 -54 17 -15 20 -16 44 0 43 28 28 56
-31 56 -13 0 -24 -1 -25 -2z"/>
<path d="M7290 3840 c-1 -18 -1 -938 0 -1000 0 -49 -3 -47 75 -41 7 1 10 136
10 389 0 213 1 397 3 409 4 19 8 17 38 -23 19 -24 45 -57 58 -72 13 -15 117
-137 231 -272 113 -135 222 -263 240 -285 19 -22 49 -58 67 -80 18 -21 44 -52
58 -68 l25 -29 0 524 0 523 -42 0 -43 1 0 -398 c0 -431 1 -422 -53 -350 -16
20 -48 60 -72 87 -43 50 -133 157 -210 249 -22 27 -49 58 -60 70 -20 22 -70
82 -140 166 -21 25 -40 47 -44 50 -3 3 -24 27 -45 54 -67 82 -96 112 -96 96z"/>
<path d="M970 3824 c-136 -28 -273 -122 -336 -230 -62 -106 -91 -260 -71 -374
4 -19 9 -48 12 -65 11 -62 74 -171 132 -229 59 -59 183 -129 253 -142 143 -26
335 4 436 70 21 14 24 23 22 66 -2 28 -4 50 -6 50 -2 0 -17 -9 -33 -21 -76
-54 -205 -94 -294 -92 -82 2 -225 43 -225 64 0 5 -6 9 -13 9 -15 0 -97 76 -97
90 0 5 -4 10 -8 10 -8 0 -53 81 -59 105 -1 6 -7 30 -13 55 -26 103 -11 239 36
334 26 54 104 146 123 146 6 0 11 4 11 9 0 14 116 62 170 70 133 21 286 -15
369 -88 43 -37 51 -23 42 66 -2 17 -98 69 -166 89 -76 22 -202 25 -285 8z"/>
<path d="M1915 3820 c-178 -45 -326 -190 -379 -367 -8 -29 -12 -53 -9 -53 3 0
2 -6 -3 -12 -10 -15 -11 -124 -1 -180 7 -39 46 -150 56 -158 3 -3 18 -23 32
-45 58 -89 160 -165 275 -207 43 -16 86 -22 162 -23 89 -2 114 1 181 24 116
40 191 92 262 183 139 175 151 426 29 609 -34 52 -138 159 -154 159 -3 0 -23
10 -44 23 -72 44 -125 57 -247 62 -64 2 -110 -2 -160 -15z m294 -92 c65 -24
128 -62 154 -92 63 -71 80 -95 101 -140 29 -60 38 -110 39 -191 0 -67 -8 -118
-25 -149 -6 -11 -10 -21 -8 -21 12 0 -50 -102 -84 -138 -88 -91 -193 -138
-316 -142 -357 -9 -577 389 -383 693 111 175 331 251 522 180z"/>
<path d="M8635 3825 c-63 -13 -131 -41 -153 -62 -7 -7 -17 -13 -21 -13 -21 0
-123 -119 -154 -179 -44 -83 -60 -153 -62 -261 -6 -329 212 -548 533 -536 140
5 198 22 287 84 115 79 178 206 190 379 l5 63 -33 0 c-37 1 -334 1 -387 0 -34
0 -36 -2 -35 -35 1 -19 4 -37 7 -40 2 -3 82 -5 175 -6 l171 0 -5 -37 c-10 -93
-48 -169 -113 -231 -44 -42 -144 -83 -214 -87 -35 -2 -67 -4 -72 -6 -14 -4
-114 12 -132 21 -146 71 -213 143 -258 278 -29 85 -24 243 9 322 5 14 11 28
11 31 1 3 13 25 28 50 49 84 151 159 246 181 59 14 178 14 215 0 15 -6 27 -8
27 -5 0 18 130 -69 174 -116 l52 -57 34 27 33 27 -19 29 c-52 83 -161 154
-279 180 -51 12 -205 11 -260 -1z"/>
<path d="M6249 3816 c-4 -2 -5 -1002 -2 -1013 3 -6 12 -10 21 -8 9 2 29 4 43
4 l26 1 -1 256 -1 255 60 -63 c33 -36 98 -107 145 -158 95 -105 155 -171 222
-244 45 -50 45 -50 111 -50 72 -1 72 -2 12 60 -32 33 -264 278 -377 397 -38
40 -68 74 -68 77 0 3 106 111 235 240 129 129 232 236 230 239 -3 2 -28 5 -55
7 l-50 2 -94 -97 c-52 -53 -157 -160 -233 -239 l-138 -144 0 239 0 238 -42 1
c-24 0 -44 0 -44 0z"/>
<path d="M7001 3305 l1 -510 38 1 c21 1 42 4 47 7 4 3 8 232 8 509 l0 503 -47
0 -47 0 0 -510z"/>
<path d="M2759 3143 c-4 -42 -3 -76 3 -80 5 -2 69 -4 143 -5 139 0 166 6 160
40 -2 9 -4 25 -4 35 -1 15 -15 17 -151 17 -82 0 -150 -3 -151 -7z"/>
</g>
</svg>
